<mxfile host="app.diagrams.net" modified="2023-10-15T14:19:18.783Z" agent="Mozilla/5.0 (Windows NT 10.0; Win64; x64) AppleWebKit/537.36 (KHTML, like Gecko) Chrome/110.0.0.0 Safari/537.36" etag="_MiWtAOKliz3XoFQ6_CG" version="22.0.4" type="github">
  <diagram id="R2lEEEUBdFMjLlhIrx00" name="Page-1">
    <mxGraphModel dx="1011" dy="806" grid="1" gridSize="10" guides="1" tooltips="1" connect="1" arrows="1" fold="1" page="1" pageScale="1" pageWidth="850" pageHeight="1100" math="0" shadow="0" extFonts="Permanent Marker^https://fonts.googleapis.com/css?family=Permanent+Marker">
      <root>
        <mxCell id="0" />
        <mxCell id="1" parent="0" />
        <mxCell id="yXpgqKiNLUe4wPaJCOg1-1" value="Supplier&amp;nbsp;" style="rounded=0;whiteSpace=wrap;html=1;fillColor=#f5f5f5;fontColor=#333333;strokeColor=#666666;" vertex="1" parent="1">
          <mxGeometry x="145" y="110" width="120" height="60" as="geometry" />
        </mxCell>
        <mxCell id="yXpgqKiNLUe4wPaJCOg1-3" value="id_supplier" style="ellipse;whiteSpace=wrap;html=1;fillColor=#f5f5f5;fontColor=#333333;strokeColor=#666666;" vertex="1" parent="1">
          <mxGeometry y="30" width="110" height="50" as="geometry" />
        </mxCell>
        <mxCell id="yXpgqKiNLUe4wPaJCOg1-4" value="nama_supplier" style="ellipse;whiteSpace=wrap;html=1;fillColor=#f5f5f5;fontColor=#333333;strokeColor=#666666;" vertex="1" parent="1">
          <mxGeometry x="120" y="30" width="110" height="50" as="geometry" />
        </mxCell>
        <mxCell id="yXpgqKiNLUe4wPaJCOg1-5" value="alamat_supplier" style="ellipse;whiteSpace=wrap;html=1;fillColor=#f5f5f5;fontColor=#333333;strokeColor=#666666;" vertex="1" parent="1">
          <mxGeometry y="150" width="110" height="50" as="geometry" />
        </mxCell>
        <mxCell id="yXpgqKiNLUe4wPaJCOg1-6" value="kontak_supplier" style="ellipse;whiteSpace=wrap;html=1;fillColor=#f5f5f5;fontColor=#333333;strokeColor=#666666;" vertex="1" parent="1">
          <mxGeometry y="90" width="110" height="52" as="geometry" />
        </mxCell>
        <mxCell id="yXpgqKiNLUe4wPaJCOg1-13" value="" style="endArrow=none;html=1;rounded=0;fillColor=#f5f5f5;strokeColor=#666666;" edge="1" parent="1" source="yXpgqKiNLUe4wPaJCOg1-3" target="yXpgqKiNLUe4wPaJCOg1-1">
          <mxGeometry width="50" height="50" relative="1" as="geometry">
            <mxPoint x="190" y="260" as="sourcePoint" />
            <mxPoint x="240" y="210" as="targetPoint" />
          </mxGeometry>
        </mxCell>
        <mxCell id="yXpgqKiNLUe4wPaJCOg1-14" value="" style="endArrow=none;html=1;rounded=0;fillColor=#f5f5f5;strokeColor=#666666;" edge="1" parent="1" source="yXpgqKiNLUe4wPaJCOg1-1" target="yXpgqKiNLUe4wPaJCOg1-4">
          <mxGeometry width="50" height="50" relative="1" as="geometry">
            <mxPoint x="190" y="260" as="sourcePoint" />
            <mxPoint x="240" y="210" as="targetPoint" />
          </mxGeometry>
        </mxCell>
        <mxCell id="yXpgqKiNLUe4wPaJCOg1-15" value="" style="endArrow=none;html=1;rounded=0;fillColor=#f5f5f5;strokeColor=#666666;" edge="1" parent="1" source="yXpgqKiNLUe4wPaJCOg1-6" target="yXpgqKiNLUe4wPaJCOg1-1">
          <mxGeometry width="50" height="50" relative="1" as="geometry">
            <mxPoint x="190" y="260" as="sourcePoint" />
            <mxPoint x="240" y="210" as="targetPoint" />
          </mxGeometry>
        </mxCell>
        <mxCell id="yXpgqKiNLUe4wPaJCOg1-16" value="" style="endArrow=none;html=1;rounded=0;fillColor=#f5f5f5;strokeColor=#666666;" edge="1" parent="1" source="yXpgqKiNLUe4wPaJCOg1-1" target="yXpgqKiNLUe4wPaJCOg1-5">
          <mxGeometry width="50" height="50" relative="1" as="geometry">
            <mxPoint x="190" y="260" as="sourcePoint" />
            <mxPoint x="240" y="210" as="targetPoint" />
          </mxGeometry>
        </mxCell>
        <mxCell id="yXpgqKiNLUe4wPaJCOg1-31" value="Pesanan&amp;nbsp;" style="rounded=0;whiteSpace=wrap;html=1;fillColor=#f5f5f5;fontColor=#333333;strokeColor=#666666;" vertex="1" parent="1">
          <mxGeometry x="565" y="110" width="120" height="60" as="geometry" />
        </mxCell>
        <mxCell id="yXpgqKiNLUe4wPaJCOg1-32" value="id_pesanan" style="ellipse;whiteSpace=wrap;html=1;fillColor=#f5f5f5;fontColor=#333333;strokeColor=#666666;" vertex="1" parent="1">
          <mxGeometry x="780" y="30" width="110" height="50" as="geometry" />
        </mxCell>
        <mxCell id="yXpgqKiNLUe4wPaJCOg1-33" value="supplier_id" style="ellipse;whiteSpace=wrap;html=1;fillColor=#f5f5f5;fontColor=#333333;strokeColor=#666666;" vertex="1" parent="1">
          <mxGeometry x="540" y="30" width="110" height="50" as="geometry" />
        </mxCell>
        <mxCell id="yXpgqKiNLUe4wPaJCOg1-34" value="tanggal_pemesanan" style="ellipse;whiteSpace=wrap;html=1;fillColor=#f5f5f5;fontColor=#333333;strokeColor=#666666;" vertex="1" parent="1">
          <mxGeometry x="660" y="30" width="110" height="50" as="geometry" />
        </mxCell>
        <mxCell id="yXpgqKiNLUe4wPaJCOg1-35" value="tanggal_pengiriman" style="ellipse;whiteSpace=wrap;html=1;fillColor=#f5f5f5;fontColor=#333333;strokeColor=#666666;" vertex="1" parent="1">
          <mxGeometry x="780" y="90" width="110" height="52" as="geometry" />
        </mxCell>
        <mxCell id="yXpgqKiNLUe4wPaJCOg1-36" value="" style="endArrow=none;html=1;rounded=0;fillColor=#f5f5f5;strokeColor=#666666;" edge="1" parent="1" source="yXpgqKiNLUe4wPaJCOg1-32" target="yXpgqKiNLUe4wPaJCOg1-31">
          <mxGeometry width="50" height="50" relative="1" as="geometry">
            <mxPoint x="610" y="260" as="sourcePoint" />
            <mxPoint x="660" y="210" as="targetPoint" />
          </mxGeometry>
        </mxCell>
        <mxCell id="yXpgqKiNLUe4wPaJCOg1-37" value="" style="endArrow=none;html=1;rounded=0;fillColor=#f5f5f5;strokeColor=#666666;" edge="1" parent="1" source="yXpgqKiNLUe4wPaJCOg1-31" target="yXpgqKiNLUe4wPaJCOg1-33">
          <mxGeometry width="50" height="50" relative="1" as="geometry">
            <mxPoint x="610" y="260" as="sourcePoint" />
            <mxPoint x="660" y="210" as="targetPoint" />
          </mxGeometry>
        </mxCell>
        <mxCell id="yXpgqKiNLUe4wPaJCOg1-38" value="" style="endArrow=none;html=1;rounded=0;fillColor=#f5f5f5;strokeColor=#666666;" edge="1" parent="1" source="yXpgqKiNLUe4wPaJCOg1-35" target="yXpgqKiNLUe4wPaJCOg1-31">
          <mxGeometry width="50" height="50" relative="1" as="geometry">
            <mxPoint x="610" y="260" as="sourcePoint" />
            <mxPoint x="660" y="210" as="targetPoint" />
          </mxGeometry>
        </mxCell>
        <mxCell id="yXpgqKiNLUe4wPaJCOg1-39" value="" style="endArrow=none;html=1;rounded=0;fillColor=#f5f5f5;strokeColor=#666666;" edge="1" parent="1" source="yXpgqKiNLUe4wPaJCOg1-31" target="yXpgqKiNLUe4wPaJCOg1-34">
          <mxGeometry width="50" height="50" relative="1" as="geometry">
            <mxPoint x="610" y="260" as="sourcePoint" />
            <mxPoint x="660" y="210" as="targetPoint" />
          </mxGeometry>
        </mxCell>
        <mxCell id="yXpgqKiNLUe4wPaJCOg1-53" value="Tagihan" style="rounded=0;whiteSpace=wrap;html=1;fillColor=#f5f5f5;fontColor=#333333;strokeColor=#666666;" vertex="1" parent="1">
          <mxGeometry x="145" y="260" width="120" height="60" as="geometry" />
        </mxCell>
        <mxCell id="yXpgqKiNLUe4wPaJCOg1-54" value="pesanan_id" style="ellipse;whiteSpace=wrap;html=1;fillColor=#f5f5f5;fontColor=#333333;strokeColor=#666666;" vertex="1" parent="1">
          <mxGeometry y="360" width="110" height="50" as="geometry" />
        </mxCell>
        <mxCell id="yXpgqKiNLUe4wPaJCOg1-55" value="id_tagihan&amp;nbsp;" style="ellipse;whiteSpace=wrap;html=1;fillColor=#f5f5f5;fontColor=#333333;strokeColor=#666666;" vertex="1" parent="1">
          <mxGeometry x="90" y="190" width="110" height="50" as="geometry" />
        </mxCell>
        <mxCell id="yXpgqKiNLUe4wPaJCOg1-56" value="tanggal_jatuh_tempo" style="ellipse;whiteSpace=wrap;html=1;fillColor=#f5f5f5;fontColor=#333333;strokeColor=#666666;" vertex="1" parent="1">
          <mxGeometry x="210" y="190" width="130" height="50" as="geometry" />
        </mxCell>
        <mxCell id="yXpgqKiNLUe4wPaJCOg1-57" value="tanggal_tagihan" style="ellipse;whiteSpace=wrap;html=1;fillColor=#f5f5f5;fontColor=#333333;strokeColor=#666666;" vertex="1" parent="1">
          <mxGeometry y="240" width="110" height="52" as="geometry" />
        </mxCell>
        <mxCell id="yXpgqKiNLUe4wPaJCOg1-58" value="" style="endArrow=none;html=1;rounded=0;fillColor=#f5f5f5;strokeColor=#666666;" edge="1" parent="1" source="yXpgqKiNLUe4wPaJCOg1-54" target="yXpgqKiNLUe4wPaJCOg1-53">
          <mxGeometry width="50" height="50" relative="1" as="geometry">
            <mxPoint x="190" y="410" as="sourcePoint" />
            <mxPoint x="240" y="360" as="targetPoint" />
          </mxGeometry>
        </mxCell>
        <mxCell id="yXpgqKiNLUe4wPaJCOg1-59" value="" style="endArrow=none;html=1;rounded=0;fillColor=#f5f5f5;strokeColor=#666666;" edge="1" parent="1" source="yXpgqKiNLUe4wPaJCOg1-53" target="yXpgqKiNLUe4wPaJCOg1-55">
          <mxGeometry width="50" height="50" relative="1" as="geometry">
            <mxPoint x="190" y="410" as="sourcePoint" />
            <mxPoint x="240" y="360" as="targetPoint" />
          </mxGeometry>
        </mxCell>
        <mxCell id="yXpgqKiNLUe4wPaJCOg1-60" value="" style="endArrow=none;html=1;rounded=0;fillColor=#f5f5f5;strokeColor=#666666;" edge="1" parent="1" source="yXpgqKiNLUe4wPaJCOg1-57" target="yXpgqKiNLUe4wPaJCOg1-53">
          <mxGeometry width="50" height="50" relative="1" as="geometry">
            <mxPoint x="190" y="410" as="sourcePoint" />
            <mxPoint x="240" y="360" as="targetPoint" />
          </mxGeometry>
        </mxCell>
        <mxCell id="yXpgqKiNLUe4wPaJCOg1-61" value="" style="endArrow=none;html=1;rounded=0;fillColor=#f5f5f5;strokeColor=#666666;" edge="1" parent="1" source="yXpgqKiNLUe4wPaJCOg1-53" target="yXpgqKiNLUe4wPaJCOg1-56">
          <mxGeometry width="50" height="50" relative="1" as="geometry">
            <mxPoint x="190" y="410" as="sourcePoint" />
            <mxPoint x="240" y="360" as="targetPoint" />
          </mxGeometry>
        </mxCell>
        <mxCell id="yXpgqKiNLUe4wPaJCOg1-62" value="total_tagihan" style="ellipse;whiteSpace=wrap;html=1;fillColor=#f5f5f5;fontColor=#333333;strokeColor=#666666;" vertex="1" parent="1">
          <mxGeometry y="300" width="110" height="52" as="geometry" />
        </mxCell>
        <mxCell id="yXpgqKiNLUe4wPaJCOg1-63" value="" style="endArrow=none;html=1;rounded=0;fillColor=#f5f5f5;strokeColor=#666666;" edge="1" parent="1" source="yXpgqKiNLUe4wPaJCOg1-62" target="yXpgqKiNLUe4wPaJCOg1-53">
          <mxGeometry width="50" height="50" relative="1" as="geometry">
            <mxPoint x="190" y="410" as="sourcePoint" />
            <mxPoint x="240" y="360" as="targetPoint" />
          </mxGeometry>
        </mxCell>
        <mxCell id="yXpgqKiNLUe4wPaJCOg1-64" value="Detail Pesanan" style="rounded=0;whiteSpace=wrap;html=1;fillColor=#f5f5f5;fontColor=#333333;strokeColor=#666666;" vertex="1" parent="1">
          <mxGeometry x="565" y="400" width="120" height="60" as="geometry" />
        </mxCell>
        <mxCell id="yXpgqKiNLUe4wPaJCOg1-65" value="id_detail_pesanan" style="ellipse;whiteSpace=wrap;html=1;fillColor=#f5f5f5;fontColor=#333333;strokeColor=#666666;" vertex="1" parent="1">
          <mxGeometry x="780" y="500" width="110" height="50" as="geometry" />
        </mxCell>
        <mxCell id="yXpgqKiNLUe4wPaJCOg1-67" value="pesanan_id" style="ellipse;whiteSpace=wrap;html=1;fillColor=#f5f5f5;fontColor=#333333;strokeColor=#666666;" vertex="1" parent="1">
          <mxGeometry x="660" y="500" width="110" height="50" as="geometry" />
        </mxCell>
        <mxCell id="yXpgqKiNLUe4wPaJCOg1-68" value="jumlah" style="ellipse;whiteSpace=wrap;html=1;fillColor=#f5f5f5;fontColor=#333333;strokeColor=#666666;" vertex="1" parent="1">
          <mxGeometry x="780" y="380" width="110" height="52" as="geometry" />
        </mxCell>
        <mxCell id="yXpgqKiNLUe4wPaJCOg1-69" value="" style="endArrow=none;html=1;rounded=0;fillColor=#f5f5f5;strokeColor=#666666;" edge="1" parent="1" source="yXpgqKiNLUe4wPaJCOg1-65" target="yXpgqKiNLUe4wPaJCOg1-64">
          <mxGeometry width="50" height="50" relative="1" as="geometry">
            <mxPoint x="610" y="550" as="sourcePoint" />
            <mxPoint x="660" y="500" as="targetPoint" />
          </mxGeometry>
        </mxCell>
        <mxCell id="yXpgqKiNLUe4wPaJCOg1-70" value="" style="endArrow=none;html=1;rounded=0;fillColor=#f5f5f5;strokeColor=#666666;" edge="1" parent="1" source="yXpgqKiNLUe4wPaJCOg1-64">
          <mxGeometry width="50" height="50" relative="1" as="geometry">
            <mxPoint x="610" y="550" as="sourcePoint" />
            <mxPoint x="602.8596736037748" y="500.2565830992273" as="targetPoint" />
          </mxGeometry>
        </mxCell>
        <mxCell id="yXpgqKiNLUe4wPaJCOg1-71" value="" style="endArrow=none;html=1;rounded=0;fillColor=#f5f5f5;strokeColor=#666666;" edge="1" parent="1" source="yXpgqKiNLUe4wPaJCOg1-68" target="yXpgqKiNLUe4wPaJCOg1-64">
          <mxGeometry width="50" height="50" relative="1" as="geometry">
            <mxPoint x="610" y="550" as="sourcePoint" />
            <mxPoint x="660" y="500" as="targetPoint" />
          </mxGeometry>
        </mxCell>
        <mxCell id="yXpgqKiNLUe4wPaJCOg1-72" value="" style="endArrow=none;html=1;rounded=0;fillColor=#f5f5f5;strokeColor=#666666;" edge="1" parent="1" source="yXpgqKiNLUe4wPaJCOg1-64" target="yXpgqKiNLUe4wPaJCOg1-67">
          <mxGeometry width="50" height="50" relative="1" as="geometry">
            <mxPoint x="610" y="550" as="sourcePoint" />
            <mxPoint x="660" y="500" as="targetPoint" />
          </mxGeometry>
        </mxCell>
        <mxCell id="yXpgqKiNLUe4wPaJCOg1-73" value="total_harga" style="ellipse;whiteSpace=wrap;html=1;fillColor=#f5f5f5;fontColor=#333333;strokeColor=#666666;" vertex="1" parent="1">
          <mxGeometry x="780" y="440" width="110" height="52" as="geometry" />
        </mxCell>
        <mxCell id="yXpgqKiNLUe4wPaJCOg1-74" value="" style="endArrow=none;html=1;rounded=0;fillColor=#f5f5f5;strokeColor=#666666;" edge="1" parent="1" source="yXpgqKiNLUe4wPaJCOg1-73" target="yXpgqKiNLUe4wPaJCOg1-64">
          <mxGeometry width="50" height="50" relative="1" as="geometry">
            <mxPoint x="610" y="550" as="sourcePoint" />
            <mxPoint x="660" y="500" as="targetPoint" />
          </mxGeometry>
        </mxCell>
        <mxCell id="yXpgqKiNLUe4wPaJCOg1-75" value="Memesan" style="rhombus;whiteSpace=wrap;html=1;fillColor=#f5f5f5;fontColor=#333333;strokeColor=#666666;" vertex="1" parent="1">
          <mxGeometry x="360" y="100" width="130" height="80" as="geometry" />
        </mxCell>
        <mxCell id="yXpgqKiNLUe4wPaJCOg1-77" value="Memasukan" style="rhombus;whiteSpace=wrap;html=1;fillColor=#f5f5f5;fontColor=#333333;strokeColor=#666666;" vertex="1" parent="1">
          <mxGeometry x="560" y="250" width="130" height="80" as="geometry" />
        </mxCell>
        <mxCell id="yXpgqKiNLUe4wPaJCOg1-78" value="" style="endArrow=none;html=1;rounded=0;fillColor=#f5f5f5;strokeColor=#666666;" edge="1" parent="1" source="yXpgqKiNLUe4wPaJCOg1-1" target="yXpgqKiNLUe4wPaJCOg1-75">
          <mxGeometry width="50" height="50" relative="1" as="geometry">
            <mxPoint x="370" y="290" as="sourcePoint" />
            <mxPoint x="420" y="240" as="targetPoint" />
          </mxGeometry>
        </mxCell>
        <mxCell id="yXpgqKiNLUe4wPaJCOg1-79" value="" style="endArrow=none;html=1;rounded=0;fillColor=#f5f5f5;strokeColor=#666666;" edge="1" parent="1" source="yXpgqKiNLUe4wPaJCOg1-75" target="yXpgqKiNLUe4wPaJCOg1-31">
          <mxGeometry width="50" height="50" relative="1" as="geometry">
            <mxPoint x="500" y="220" as="sourcePoint" />
            <mxPoint x="550" y="170" as="targetPoint" />
          </mxGeometry>
        </mxCell>
        <mxCell id="yXpgqKiNLUe4wPaJCOg1-80" value="" style="endArrow=none;html=1;rounded=0;fillColor=#f5f5f5;strokeColor=#666666;" edge="1" parent="1" source="yXpgqKiNLUe4wPaJCOg1-64" target="yXpgqKiNLUe4wPaJCOg1-77">
          <mxGeometry width="50" height="50" relative="1" as="geometry">
            <mxPoint x="710" y="400" as="sourcePoint" />
            <mxPoint x="760" y="350" as="targetPoint" />
          </mxGeometry>
        </mxCell>
        <mxCell id="yXpgqKiNLUe4wPaJCOg1-81" value="" style="endArrow=none;html=1;rounded=0;fillColor=#f5f5f5;strokeColor=#666666;" edge="1" parent="1" source="yXpgqKiNLUe4wPaJCOg1-77" target="yXpgqKiNLUe4wPaJCOg1-31">
          <mxGeometry width="50" height="50" relative="1" as="geometry">
            <mxPoint x="710" y="400" as="sourcePoint" />
            <mxPoint x="760" y="350" as="targetPoint" />
          </mxGeometry>
        </mxCell>
        <mxCell id="yXpgqKiNLUe4wPaJCOg1-82" value="Menghasilkan" style="rhombus;whiteSpace=wrap;html=1;fillColor=#f5f5f5;fontColor=#333333;strokeColor=#666666;" vertex="1" parent="1">
          <mxGeometry x="360" y="250" width="130" height="80" as="geometry" />
        </mxCell>
        <mxCell id="yXpgqKiNLUe4wPaJCOg1-83" value="" style="endArrow=none;html=1;rounded=0;entryX=0;entryY=1;entryDx=0;entryDy=0;fillColor=#f5f5f5;strokeColor=#666666;" edge="1" parent="1" source="yXpgqKiNLUe4wPaJCOg1-82" target="yXpgqKiNLUe4wPaJCOg1-31">
          <mxGeometry width="50" height="50" relative="1" as="geometry">
            <mxPoint x="400" y="400" as="sourcePoint" />
            <mxPoint x="450" y="350" as="targetPoint" />
          </mxGeometry>
        </mxCell>
        <mxCell id="yXpgqKiNLUe4wPaJCOg1-84" value="Pembayaran" style="rounded=0;whiteSpace=wrap;html=1;fillColor=#f5f5f5;fontColor=#333333;strokeColor=#666666;" vertex="1" parent="1">
          <mxGeometry x="145" y="495" width="120" height="60" as="geometry" />
        </mxCell>
        <mxCell id="yXpgqKiNLUe4wPaJCOg1-85" value="id_pembayaran&amp;nbsp;" style="ellipse;whiteSpace=wrap;html=1;fillColor=#f5f5f5;fontColor=#333333;strokeColor=#666666;" vertex="1" parent="1">
          <mxGeometry y="432" width="110" height="50" as="geometry" />
        </mxCell>
        <mxCell id="yXpgqKiNLUe4wPaJCOg1-88" value="tanggal" style="ellipse;whiteSpace=wrap;html=1;fillColor=#f5f5f5;fontColor=#333333;strokeColor=#666666;" vertex="1" parent="1">
          <mxGeometry y="488.5" width="110" height="52" as="geometry" />
        </mxCell>
        <mxCell id="yXpgqKiNLUe4wPaJCOg1-89" value="" style="endArrow=none;html=1;rounded=0;fillColor=#f5f5f5;strokeColor=#666666;" edge="1" parent="1" source="yXpgqKiNLUe4wPaJCOg1-85" target="yXpgqKiNLUe4wPaJCOg1-84">
          <mxGeometry width="50" height="50" relative="1" as="geometry">
            <mxPoint x="370" y="540.5" as="sourcePoint" />
            <mxPoint x="420" y="490.5" as="targetPoint" />
          </mxGeometry>
        </mxCell>
        <mxCell id="yXpgqKiNLUe4wPaJCOg1-91" value="" style="endArrow=none;html=1;rounded=0;fillColor=#f5f5f5;strokeColor=#666666;" edge="1" parent="1" source="yXpgqKiNLUe4wPaJCOg1-88" target="yXpgqKiNLUe4wPaJCOg1-84">
          <mxGeometry width="50" height="50" relative="1" as="geometry">
            <mxPoint x="490" y="659.5" as="sourcePoint" />
            <mxPoint x="445" y="529.9000000000003" as="targetPoint" />
          </mxGeometry>
        </mxCell>
        <mxCell id="yXpgqKiNLUe4wPaJCOg1-93" value="jumlah_bayar" style="ellipse;whiteSpace=wrap;html=1;fillColor=#f5f5f5;fontColor=#333333;strokeColor=#666666;" vertex="1" parent="1">
          <mxGeometry y="550" width="110" height="52" as="geometry" />
        </mxCell>
        <mxCell id="yXpgqKiNLUe4wPaJCOg1-94" value="" style="endArrow=none;html=1;rounded=0;fillColor=#f5f5f5;strokeColor=#666666;" edge="1" parent="1" source="yXpgqKiNLUe4wPaJCOg1-93" target="yXpgqKiNLUe4wPaJCOg1-84">
          <mxGeometry width="50" height="50" relative="1" as="geometry">
            <mxPoint x="370" y="540.5" as="sourcePoint" />
            <mxPoint x="420" y="490.5" as="targetPoint" />
          </mxGeometry>
        </mxCell>
        <mxCell id="yXpgqKiNLUe4wPaJCOg1-95" value="" style="endArrow=none;html=1;rounded=0;fillColor=#f5f5f5;strokeColor=#666666;" edge="1" parent="1" source="yXpgqKiNLUe4wPaJCOg1-53" target="yXpgqKiNLUe4wPaJCOg1-82">
          <mxGeometry width="50" height="50" relative="1" as="geometry">
            <mxPoint x="320" y="400" as="sourcePoint" />
            <mxPoint x="370" y="350" as="targetPoint" />
          </mxGeometry>
        </mxCell>
        <mxCell id="yXpgqKiNLUe4wPaJCOg1-96" value="Membayar" style="rhombus;whiteSpace=wrap;html=1;fillColor=#f5f5f5;fontColor=#333333;strokeColor=#666666;" vertex="1" parent="1">
          <mxGeometry x="140" y="362" width="130" height="80" as="geometry" />
        </mxCell>
        <mxCell id="yXpgqKiNLUe4wPaJCOg1-99" value="" style="endArrow=none;html=1;rounded=0;fillColor=#f5f5f5;strokeColor=#666666;" edge="1" parent="1" source="yXpgqKiNLUe4wPaJCOg1-84" target="yXpgqKiNLUe4wPaJCOg1-96">
          <mxGeometry width="50" height="50" relative="1" as="geometry">
            <mxPoint x="500" y="350.5" as="sourcePoint" />
            <mxPoint x="229.52340665538622" y="421.2067117879301" as="targetPoint" />
          </mxGeometry>
        </mxCell>
        <mxCell id="yXpgqKiNLUe4wPaJCOg1-100" value="" style="endArrow=none;html=1;rounded=0;fillColor=#f5f5f5;strokeColor=#666666;" edge="1" parent="1" source="yXpgqKiNLUe4wPaJCOg1-96" target="yXpgqKiNLUe4wPaJCOg1-53">
          <mxGeometry width="50" height="50" relative="1" as="geometry">
            <mxPoint x="320" y="400" as="sourcePoint" />
            <mxPoint x="370" y="350" as="targetPoint" />
          </mxGeometry>
        </mxCell>
        <mxCell id="yXpgqKiNLUe4wPaJCOg1-101" value="Barang&lt;br&gt;" style="rounded=0;whiteSpace=wrap;html=1;fillColor=#f5f5f5;fontColor=#333333;strokeColor=#666666;" vertex="1" parent="1">
          <mxGeometry x="335" y="500" width="120" height="60" as="geometry" />
        </mxCell>
        <mxCell id="yXpgqKiNLUe4wPaJCOg1-102" value="id_barang" style="ellipse;whiteSpace=wrap;html=1;fillColor=#f5f5f5;fontColor=#333333;strokeColor=#666666;" vertex="1" parent="1">
          <mxGeometry x="550" y="600" width="110" height="50" as="geometry" />
        </mxCell>
        <mxCell id="yXpgqKiNLUe4wPaJCOg1-103" value="stok" style="ellipse;whiteSpace=wrap;html=1;fillColor=#f5f5f5;fontColor=#333333;strokeColor=#666666;" vertex="1" parent="1">
          <mxGeometry x="310" y="600" width="110" height="50" as="geometry" />
        </mxCell>
        <mxCell id="yXpgqKiNLUe4wPaJCOg1-104" value="harga" style="ellipse;whiteSpace=wrap;html=1;fillColor=#f5f5f5;fontColor=#333333;strokeColor=#666666;" vertex="1" parent="1">
          <mxGeometry x="430" y="600" width="110" height="50" as="geometry" />
        </mxCell>
        <mxCell id="yXpgqKiNLUe4wPaJCOg1-105" value="jumlah" style="ellipse;whiteSpace=wrap;html=1;fillColor=#f5f5f5;fontColor=#333333;strokeColor=#666666;" vertex="1" parent="1">
          <mxGeometry x="550" y="480" width="110" height="52" as="geometry" />
        </mxCell>
        <mxCell id="yXpgqKiNLUe4wPaJCOg1-106" value="" style="endArrow=none;html=1;rounded=0;fillColor=#f5f5f5;strokeColor=#666666;" edge="1" parent="1" source="yXpgqKiNLUe4wPaJCOg1-102" target="yXpgqKiNLUe4wPaJCOg1-101">
          <mxGeometry width="50" height="50" relative="1" as="geometry">
            <mxPoint x="380" y="650" as="sourcePoint" />
            <mxPoint x="430" y="600" as="targetPoint" />
          </mxGeometry>
        </mxCell>
        <mxCell id="yXpgqKiNLUe4wPaJCOg1-107" value="" style="endArrow=none;html=1;rounded=0;fillColor=#f5f5f5;strokeColor=#666666;" edge="1" parent="1" source="yXpgqKiNLUe4wPaJCOg1-101" target="yXpgqKiNLUe4wPaJCOg1-103">
          <mxGeometry width="50" height="50" relative="1" as="geometry">
            <mxPoint x="380" y="650" as="sourcePoint" />
            <mxPoint x="430" y="600" as="targetPoint" />
          </mxGeometry>
        </mxCell>
        <mxCell id="yXpgqKiNLUe4wPaJCOg1-109" value="" style="endArrow=none;html=1;rounded=0;fillColor=#f5f5f5;strokeColor=#666666;" edge="1" parent="1" source="yXpgqKiNLUe4wPaJCOg1-101" target="yXpgqKiNLUe4wPaJCOg1-104">
          <mxGeometry width="50" height="50" relative="1" as="geometry">
            <mxPoint x="380" y="650" as="sourcePoint" />
            <mxPoint x="430" y="600" as="targetPoint" />
          </mxGeometry>
        </mxCell>
        <mxCell id="yXpgqKiNLUe4wPaJCOg1-110" value="nama_barang" style="ellipse;whiteSpace=wrap;html=1;fillColor=#f5f5f5;fontColor=#333333;strokeColor=#666666;" vertex="1" parent="1">
          <mxGeometry x="190" y="598" width="110" height="52" as="geometry" />
        </mxCell>
        <mxCell id="yXpgqKiNLUe4wPaJCOg1-111" value="" style="endArrow=none;html=1;rounded=0;fillColor=#f5f5f5;strokeColor=#666666;" edge="1" parent="1" source="yXpgqKiNLUe4wPaJCOg1-110" target="yXpgqKiNLUe4wPaJCOg1-101">
          <mxGeometry width="50" height="50" relative="1" as="geometry">
            <mxPoint x="380" y="650" as="sourcePoint" />
            <mxPoint x="430" y="600" as="targetPoint" />
          </mxGeometry>
        </mxCell>
        <mxCell id="yXpgqKiNLUe4wPaJCOg1-112" value="Mengandung" style="rhombus;whiteSpace=wrap;html=1;fillColor=#f5f5f5;fontColor=#333333;strokeColor=#666666;" vertex="1" parent="1">
          <mxGeometry x="330" y="390" width="130" height="80" as="geometry" />
        </mxCell>
        <mxCell id="yXpgqKiNLUe4wPaJCOg1-113" value="" style="endArrow=none;html=1;rounded=0;fillColor=#f5f5f5;strokeColor=#666666;" edge="1" parent="1" source="yXpgqKiNLUe4wPaJCOg1-112" target="yXpgqKiNLUe4wPaJCOg1-64">
          <mxGeometry width="50" height="50" relative="1" as="geometry">
            <mxPoint x="530" y="390" as="sourcePoint" />
            <mxPoint x="580" y="340" as="targetPoint" />
          </mxGeometry>
        </mxCell>
        <mxCell id="yXpgqKiNLUe4wPaJCOg1-114" value="" style="endArrow=none;html=1;rounded=0;fillColor=#f5f5f5;strokeColor=#666666;" edge="1" parent="1" source="yXpgqKiNLUe4wPaJCOg1-101" target="yXpgqKiNLUe4wPaJCOg1-112">
          <mxGeometry width="50" height="50" relative="1" as="geometry">
            <mxPoint x="470" y="440" as="sourcePoint" />
            <mxPoint x="575" y="440" as="targetPoint" />
          </mxGeometry>
        </mxCell>
        <mxCell id="yXpgqKiNLUe4wPaJCOg1-115" value="id_supplier" style="ellipse;whiteSpace=wrap;html=1;fillColor=#f5f5f5;fontColor=#333333;strokeColor=#666666;" vertex="1" parent="1">
          <mxGeometry x="240" y="30" width="110" height="50" as="geometry" />
        </mxCell>
        <mxCell id="yXpgqKiNLUe4wPaJCOg1-116" value="id_pesanan" style="ellipse;whiteSpace=wrap;html=1;fillColor=#f5f5f5;fontColor=#333333;strokeColor=#666666;" vertex="1" parent="1">
          <mxGeometry x="425" y="30" width="110" height="50" as="geometry" />
        </mxCell>
        <mxCell id="yXpgqKiNLUe4wPaJCOg1-117" value="" style="endArrow=none;html=1;rounded=0;fillColor=#f5f5f5;strokeColor=#666666;" edge="1" parent="1" source="yXpgqKiNLUe4wPaJCOg1-75" target="yXpgqKiNLUe4wPaJCOg1-116">
          <mxGeometry width="50" height="50" relative="1" as="geometry">
            <mxPoint x="624" y="120" as="sourcePoint" />
            <mxPoint x="614" y="90" as="targetPoint" />
          </mxGeometry>
        </mxCell>
        <mxCell id="yXpgqKiNLUe4wPaJCOg1-118" value="" style="endArrow=none;html=1;rounded=0;fillColor=#f5f5f5;strokeColor=#666666;" edge="1" parent="1" source="yXpgqKiNLUe4wPaJCOg1-75" target="yXpgqKiNLUe4wPaJCOg1-115">
          <mxGeometry width="50" height="50" relative="1" as="geometry">
            <mxPoint x="454" y="121" as="sourcePoint" />
            <mxPoint x="475" y="89" as="targetPoint" />
          </mxGeometry>
        </mxCell>
        <mxCell id="yXpgqKiNLUe4wPaJCOg1-119" value="id_tagihan&amp;nbsp;" style="ellipse;whiteSpace=wrap;html=1;fillColor=#f5f5f5;fontColor=#333333;strokeColor=#666666;" vertex="1" parent="1">
          <mxGeometry x="370" y="190" width="110" height="50" as="geometry" />
        </mxCell>
        <mxCell id="yXpgqKiNLUe4wPaJCOg1-120" value="id_tagihan&amp;nbsp;" style="ellipse;whiteSpace=wrap;html=1;fillColor=#f5f5f5;fontColor=#333333;strokeColor=#666666;" vertex="1" parent="1">
          <mxGeometry x="270" y="330" width="110" height="50" as="geometry" />
        </mxCell>
        <mxCell id="yXpgqKiNLUe4wPaJCOg1-121" value="id_pesanan" style="ellipse;whiteSpace=wrap;html=1;fillColor=#f5f5f5;fontColor=#333333;strokeColor=#666666;" vertex="1" parent="1">
          <mxGeometry x="510" y="210" width="110" height="50" as="geometry" />
        </mxCell>
        <mxCell id="yXpgqKiNLUe4wPaJCOg1-122" value="" style="endArrow=none;html=1;rounded=0;fillColor=#f5f5f5;strokeColor=#666666;" edge="1" parent="1" source="yXpgqKiNLUe4wPaJCOg1-82" target="yXpgqKiNLUe4wPaJCOg1-121">
          <mxGeometry width="50" height="50" relative="1" as="geometry">
            <mxPoint x="635" y="260" as="sourcePoint" />
            <mxPoint x="635" y="180" as="targetPoint" />
          </mxGeometry>
        </mxCell>
        <mxCell id="yXpgqKiNLUe4wPaJCOg1-123" value="" style="endArrow=none;html=1;rounded=0;fillColor=#f5f5f5;strokeColor=#666666;" edge="1" parent="1" source="yXpgqKiNLUe4wPaJCOg1-82" target="yXpgqKiNLUe4wPaJCOg1-119">
          <mxGeometry width="50" height="50" relative="1" as="geometry">
            <mxPoint x="477" y="286" as="sourcePoint" />
            <mxPoint x="521" y="270" as="targetPoint" />
          </mxGeometry>
        </mxCell>
        <mxCell id="yXpgqKiNLUe4wPaJCOg1-124" value="" style="endArrow=none;html=1;rounded=0;fillColor=#f5f5f5;strokeColor=#666666;" edge="1" parent="1" source="yXpgqKiNLUe4wPaJCOg1-96" target="yXpgqKiNLUe4wPaJCOg1-120">
          <mxGeometry width="50" height="50" relative="1" as="geometry">
            <mxPoint x="487" y="296" as="sourcePoint" />
            <mxPoint x="531" y="280" as="targetPoint" />
          </mxGeometry>
        </mxCell>
        <mxCell id="yXpgqKiNLUe4wPaJCOg1-125" value="id_pembayaran&amp;nbsp;" style="ellipse;whiteSpace=wrap;html=1;fillColor=#f5f5f5;fontColor=#333333;strokeColor=#666666;" vertex="1" parent="1">
          <mxGeometry x="225" y="438.5" width="110" height="50" as="geometry" />
        </mxCell>
        <mxCell id="yXpgqKiNLUe4wPaJCOg1-126" value="" style="endArrow=none;html=1;rounded=0;fillColor=#f5f5f5;strokeColor=#666666;" edge="1" parent="1" source="yXpgqKiNLUe4wPaJCOg1-125" target="yXpgqKiNLUe4wPaJCOg1-96">
          <mxGeometry width="50" height="50" relative="1" as="geometry">
            <mxPoint x="104" y="484" as="sourcePoint" />
            <mxPoint x="155" y="508" as="targetPoint" />
          </mxGeometry>
        </mxCell>
        <mxCell id="yXpgqKiNLUe4wPaJCOg1-127" value="id_pesanan" style="ellipse;whiteSpace=wrap;html=1;fillColor=#f5f5f5;fontColor=#333333;strokeColor=#666666;" vertex="1" parent="1">
          <mxGeometry x="650" y="190" width="110" height="50" as="geometry" />
        </mxCell>
        <mxCell id="yXpgqKiNLUe4wPaJCOg1-128" value="id_detail_pesanan" style="ellipse;whiteSpace=wrap;html=1;fillColor=#f5f5f5;fontColor=#333333;strokeColor=#666666;" vertex="1" parent="1">
          <mxGeometry x="470" y="310" width="110" height="50" as="geometry" />
        </mxCell>
        <mxCell id="yXpgqKiNLUe4wPaJCOg1-129" value="" style="endArrow=none;html=1;rounded=0;fillColor=#f5f5f5;strokeColor=#666666;" edge="1" parent="1" source="yXpgqKiNLUe4wPaJCOg1-127" target="yXpgqKiNLUe4wPaJCOg1-77">
          <mxGeometry width="50" height="50" relative="1" as="geometry">
            <mxPoint x="791" y="132" as="sourcePoint" />
            <mxPoint x="695" y="143" as="targetPoint" />
          </mxGeometry>
        </mxCell>
        <mxCell id="yXpgqKiNLUe4wPaJCOg1-130" value="" style="endArrow=none;html=1;rounded=0;fillColor=#f5f5f5;strokeColor=#666666;" edge="1" parent="1" source="yXpgqKiNLUe4wPaJCOg1-128" target="yXpgqKiNLUe4wPaJCOg1-77">
          <mxGeometry width="50" height="50" relative="1" as="geometry">
            <mxPoint x="691" y="247" as="sourcePoint" />
            <mxPoint x="661" y="276" as="targetPoint" />
          </mxGeometry>
        </mxCell>
        <mxCell id="yXpgqKiNLUe4wPaJCOg1-131" value="id_barang" style="ellipse;whiteSpace=wrap;html=1;fillColor=#f5f5f5;fontColor=#333333;strokeColor=#666666;" vertex="1" parent="1">
          <mxGeometry x="450" y="450" width="110" height="50" as="geometry" />
        </mxCell>
        <mxCell id="yXpgqKiNLUe4wPaJCOg1-132" value="" style="endArrow=none;html=1;rounded=0;fillColor=#f5f5f5;strokeColor=#666666;" edge="1" parent="1" source="yXpgqKiNLUe4wPaJCOg1-131" target="yXpgqKiNLUe4wPaJCOg1-112">
          <mxGeometry width="50" height="50" relative="1" as="geometry">
            <mxPoint x="576" y="617" as="sourcePoint" />
            <mxPoint x="465" y="567" as="targetPoint" />
          </mxGeometry>
        </mxCell>
        <mxCell id="yXpgqKiNLUe4wPaJCOg1-133" value="id_detail_pesanan" style="ellipse;whiteSpace=wrap;html=1;fillColor=#f5f5f5;fontColor=#333333;strokeColor=#666666;" vertex="1" parent="1">
          <mxGeometry x="450" y="370" width="110" height="50" as="geometry" />
        </mxCell>
        <mxCell id="yXpgqKiNLUe4wPaJCOg1-134" value="" style="endArrow=none;html=1;rounded=0;fillColor=#f5f5f5;strokeColor=#666666;" edge="1" parent="1" source="yXpgqKiNLUe4wPaJCOg1-112" target="yXpgqKiNLUe4wPaJCOg1-133">
          <mxGeometry width="50" height="50" relative="1" as="geometry">
            <mxPoint x="470" y="440" as="sourcePoint" />
            <mxPoint x="575" y="440" as="targetPoint" />
          </mxGeometry>
        </mxCell>
      </root>
    </mxGraphModel>
  </diagram>
</mxfile>
